<svg xmlns="http://www.w3.org/2000/svg" xmlns:xlink="http://www.w3.org/1999/xlink" width="500" zoomAndPan="magnify" viewBox="0 0 375 374.999991" height="500" preserveAspectRatio="xMidYMid meet" version="1.0"><defs><g/><clipPath id="fd08b30531"><path d="M 60 99 L 315 99 L 315 205.09375 L 60 205.09375 Z M 60 99 " clip-rule="nonzero"/></clipPath><clipPath id="3ac834c4a6"><path d="M 263.652344 179.480469 L 315 179.480469 L 315 231 L 263.652344 231 Z M 263.652344 179.480469 " clip-rule="nonzero"/></clipPath><clipPath id="021255b3e4"><path d="M 60 177.1875 L 108.363281 177.1875 L 108.363281 231 L 60 231 Z M 60 177.1875 " clip-rule="nonzero"/></clipPath></defs><rect x="-37.5" width="450" fill="#ffffff" y="-37.499999" height="449.999989" fill-opacity="1"/><rect x="-37.5" width="450" fill="#ffffff" y="-37.499999" height="449.999989" fill-opacity="1"/><rect x="-37.5" width="450" fill="#fffafa" y="-37.499999" height="449.999989" fill-opacity="1"/><g fill="#000000" fill-opacity="1"><g transform="translate(99.973034, 219.616349)"><g><path d="M 6.058594 0 C 7.746094 0 9.875 -0.300781 11.398438 -1.316406 C 14.011719 -3.050781 13.941406 -6.542969 11.652344 -8.394531 C 9.894531 -9.828125 6.960938 -9.917969 4.808594 -10.453125 C 3.027344 -10.914062 1.132812 -11.746094 1.316406 -13.6875 C 1.480469 -15.421875 3.167969 -16.441406 4.738281 -16.785156 C 6.867188 -17.273438 9.480469 -16.808594 10.660156 -15.261719 C 11.351562 -14.359375 11.609375 -13.15625 11.144531 -11.863281 C 12.441406 -11.839844 13.132812 -12.625 13.132812 -13.664062 C 13.132812 -15.007812 11.722656 -16.070312 10.613281 -16.601562 C 9.457031 -17.109375 8.183594 -17.34375 6.914062 -17.34375 C 4.671875 -17.34375 1.550781 -16.832031 0.417969 -14.613281 C -0.253906 -13.320312 -0.09375 -11.675781 0.855469 -10.496094 C 2.707031 -8.277344 6.566406 -8.441406 9.109375 -7.539062 C 11.699219 -6.636719 13.0625 -3.953125 11.007812 -1.941406 C 9.085938 -0.0703125 4.53125 0.347656 2.542969 -1.78125 C 1.6875 -2.707031 1.316406 -4.023438 1.828125 -5.480469 C 0.53125 -5.480469 -0.160156 -4.695312 -0.160156 -3.675781 C -0.160156 -2.335938 1.25 -1.25 2.359375 -0.738281 C 3.492188 -0.207031 4.785156 0 6.058594 0 Z M 6.058594 0 "/></g></g></g><g fill="#000000" fill-opacity="1"><g transform="translate(115.325417, 219.616349)"><g><path d="M 7.675781 -17.34375 L 5.550781 -17.34375 C 5.226562 -14.730469 4.160156 -12.996094 2.75 -10.890625 C 1.59375 -9.15625 0.277344 -7.191406 0.046875 -5.0625 C -0.277344 -2.152344 1.59375 0 4.648438 0 C 8.417969 0 10.472656 -3.121094 10.472656 -6.359375 L 13.339844 0 L 15.445312 0 Z M 9.941406 -7.539062 C 10.9375 -5.339844 8.507812 -2.058594 6.21875 -1.664062 C 3.539062 -1.179688 1.734375 -2.796875 1.503906 -5.085938 C 1.273438 -7.285156 2.660156 -9.574219 3.699219 -11.421875 C 4.671875 -13.132812 5.480469 -14.796875 5.828125 -16.71875 Z M 9.941406 -7.539062 "/></g></g></g><g fill="#000000" fill-opacity="1"><g transform="translate(132.088192, 219.616349)"><g><path d="M 6.058594 0 C 7.746094 0 9.875 -0.300781 11.398438 -1.316406 C 14.011719 -3.050781 13.941406 -6.542969 11.652344 -8.394531 C 9.894531 -9.828125 6.960938 -9.917969 4.808594 -10.453125 C 3.027344 -10.914062 1.132812 -11.746094 1.316406 -13.6875 C 1.480469 -15.421875 3.167969 -16.441406 4.738281 -16.785156 C 6.867188 -17.273438 9.480469 -16.808594 10.660156 -15.261719 C 11.351562 -14.359375 11.609375 -13.15625 11.144531 -11.863281 C 12.441406 -11.839844 13.132812 -12.625 13.132812 -13.664062 C 13.132812 -15.007812 11.722656 -16.070312 10.613281 -16.601562 C 9.457031 -17.109375 8.183594 -17.34375 6.914062 -17.34375 C 4.671875 -17.34375 1.550781 -16.832031 0.417969 -14.613281 C -0.253906 -13.320312 -0.09375 -11.675781 0.855469 -10.496094 C 2.707031 -8.277344 6.566406 -8.441406 9.109375 -7.539062 C 11.699219 -6.636719 13.0625 -3.953125 11.007812 -1.941406 C 9.085938 -0.0703125 4.53125 0.347656 2.542969 -1.78125 C 1.6875 -2.707031 1.316406 -4.023438 1.828125 -5.480469 C 0.53125 -5.480469 -0.160156 -4.695312 -0.160156 -3.675781 C -0.160156 -2.335938 1.25 -1.25 2.359375 -0.738281 C 3.492188 -0.207031 4.785156 0 6.058594 0 Z M 6.058594 0 "/></g></g></g><g fill="#000000" fill-opacity="1"><g transform="translate(147.440575, 219.616349)"><g><path d="M 13.480469 -17.34375 L 0 -17.34375 L 0 -15.398438 C 1.734375 -16.046875 3.050781 -16.902344 5.78125 -16.972656 L 5.78125 0 L 7.699219 0 L 7.699219 -16.972656 C 10.429688 -16.902344 11.746094 -16.046875 13.480469 -15.398438 Z M 13.480469 -17.34375 "/></g></g></g><g fill="#000000" fill-opacity="1"><g transform="translate(162.977916, 219.616349)"><g><path d="M 8.394531 -17.34375 C 3.769531 -17.34375 0 -13.457031 0 -8.671875 C 0 -3.882812 3.769531 0 8.394531 0 C 13.042969 0 16.785156 -3.882812 16.785156 -8.671875 C 16.785156 -13.457031 13.042969 -17.34375 8.394531 -17.34375 Z M 8.394531 -16.972656 C 11.976562 -16.972656 14.867188 -13.25 14.867188 -8.671875 C 14.867188 -4.070312 11.976562 -0.347656 8.394531 -0.347656 C 4.832031 -0.347656 1.917969 -4.070312 1.917969 -8.671875 C 1.917969 -13.25 4.832031 -16.972656 8.394531 -16.972656 Z M 8.394531 -16.972656 "/></g></g></g><g fill="#000000" fill-opacity="1"><g transform="translate(181.844713, 219.616349)"><g/></g></g><g fill="#000000" fill-opacity="1"><g transform="translate(186.908169, 219.616349)"><g><path d="M 0 -17.34375 L 0 0 L 1.917969 0 L 1.917969 -16.972656 L 7.050781 -16.972656 C 9.15625 -16.972656 11.167969 -15.285156 11.167969 -12.855469 C 11.167969 -10.519531 9.964844 -8.902344 7.421875 -8.761719 C 5.894531 -8.671875 4.71875 -8.785156 3.445312 -7.675781 L 3.628906 -7.46875 C 4.925781 -8.53125 6.105469 -8.324219 7.050781 -6.867188 C 8.441406 -4.695312 9.25 -2.726562 10.429688 -0.578125 C 10.636719 -0.207031 10.890625 0 11.539062 0 L 13.320312 0 C 12.949219 -0.230469 12.417969 -1.015625 12.207031 -1.363281 C 11.121094 -3.121094 10.195312 -5.6875 8.785156 -7.585938 C 8.554688 -7.929688 8.253906 -8.207031 7.863281 -8.394531 C 10.613281 -8.394531 13.109375 -9.828125 13.109375 -12.855469 C 13.109375 -15.652344 10.84375 -17.34375 8.371094 -17.34375 Z M 0 -17.34375 "/></g></g></g><g fill="#000000" fill-opacity="1"><g transform="translate(201.844361, 219.616349)"><g><path d="M 7.675781 -17.34375 L 5.550781 -17.34375 C 5.226562 -14.730469 4.160156 -12.996094 2.75 -10.890625 C 1.59375 -9.15625 0.277344 -7.191406 0.046875 -5.0625 C -0.277344 -2.152344 1.59375 0 4.648438 0 C 8.417969 0 10.472656 -3.121094 10.472656 -6.359375 L 13.339844 0 L 15.445312 0 Z M 9.941406 -7.539062 C 10.9375 -5.339844 8.507812 -2.058594 6.21875 -1.664062 C 3.539062 -1.179688 1.734375 -2.796875 1.503906 -5.085938 C 1.273438 -7.285156 2.660156 -9.574219 3.699219 -11.421875 C 4.671875 -13.132812 5.480469 -14.796875 5.828125 -16.71875 Z M 9.941406 -7.539062 "/></g></g></g><g fill="#000000" fill-opacity="1"><g transform="translate(218.607139, 219.616349)"><g><path d="M 18.476562 0 L 20.53125 0 L 14.542969 -17.34375 L 12.484375 -17.34375 L 10.265625 -10.867188 L 8.023438 -17.34375 L 5.988281 -17.34375 L 0 0 L 1.917969 0 C 3.007812 -6.082031 4.460938 -11.285156 6.171875 -16.785156 L 9.25 -7.90625 L 6.496094 0 L 8.441406 0 C 8.832031 -2.21875 9.273438 -4.347656 9.757812 -6.382812 L 11.976562 0 L 14.011719 0 L 10.636719 -9.78125 C 11.261719 -12.117188 11.953125 -14.429688 12.695312 -16.785156 Z M 18.476562 0 "/></g></g></g><g fill="#000000" fill-opacity="1"><g transform="translate(240.641535, 219.616349)"><g><path d="M 0 -17.34375 L 0 0 L 1.917969 0 L 1.917969 -16.972656 L 7.050781 -16.972656 C 9.15625 -16.972656 11.167969 -15.285156 11.167969 -12.855469 C 11.167969 -10.519531 9.964844 -8.902344 7.421875 -8.761719 C 5.894531 -8.671875 4.71875 -8.785156 3.445312 -7.675781 L 3.628906 -7.46875 C 4.925781 -8.53125 6.105469 -8.324219 7.050781 -6.867188 C 8.441406 -4.695312 9.25 -2.726562 10.429688 -0.578125 C 10.636719 -0.207031 10.890625 0 11.539062 0 L 13.320312 0 C 12.949219 -0.230469 12.417969 -1.015625 12.207031 -1.363281 C 11.121094 -3.121094 10.195312 -5.6875 8.785156 -7.585938 C 8.554688 -7.929688 8.253906 -8.207031 7.863281 -8.394531 C 10.613281 -8.394531 13.109375 -9.828125 13.109375 -12.855469 C 13.109375 -15.652344 10.84375 -17.34375 8.371094 -17.34375 Z M 0 -17.34375 "/></g></g></g><g fill="#000000" fill-opacity="1"><g transform="translate(255.577733, 219.616349)"><g><path d="M 8.394531 -17.34375 C 3.769531 -17.34375 0 -13.457031 0 -8.671875 C 0 -3.882812 3.769531 0 8.394531 0 C 13.042969 0 16.785156 -3.882812 16.785156 -8.671875 C 16.785156 -13.457031 13.042969 -17.34375 8.394531 -17.34375 Z M 8.394531 -16.972656 C 11.976562 -16.972656 14.867188 -13.25 14.867188 -8.671875 C 14.867188 -4.070312 11.976562 -0.347656 8.394531 -0.347656 C 4.832031 -0.347656 1.917969 -4.070312 1.917969 -8.671875 C 1.917969 -13.25 4.832031 -16.972656 8.394531 -16.972656 Z M 8.394531 -16.972656 "/></g></g></g><g fill="#000000" fill-opacity="1"><g transform="translate(146.519906, 242.866347)"><g><path d="M 6.058594 0 C 7.746094 0 9.875 -0.300781 11.398438 -1.316406 C 14.011719 -3.050781 13.941406 -6.542969 11.652344 -8.394531 C 9.894531 -9.828125 6.960938 -9.917969 4.808594 -10.453125 C 3.027344 -10.914062 1.132812 -11.746094 1.316406 -13.6875 C 1.480469 -15.421875 3.167969 -16.441406 4.738281 -16.785156 C 6.867188 -17.273438 9.480469 -16.808594 10.660156 -15.261719 C 11.351562 -14.359375 11.609375 -13.15625 11.144531 -11.863281 C 12.441406 -11.839844 13.132812 -12.625 13.132812 -13.664062 C 13.132812 -15.007812 11.722656 -16.070312 10.613281 -16.601562 C 9.457031 -17.109375 8.183594 -17.34375 6.914062 -17.34375 C 4.671875 -17.34375 1.550781 -16.832031 0.417969 -14.613281 C -0.253906 -13.320312 -0.09375 -11.675781 0.855469 -10.496094 C 2.707031 -8.277344 6.566406 -8.441406 9.109375 -7.539062 C 11.699219 -6.636719 13.0625 -3.953125 11.007812 -1.941406 C 9.085938 -0.0703125 4.53125 0.347656 2.542969 -1.78125 C 1.6875 -2.707031 1.316406 -4.023438 1.828125 -5.480469 C 0.53125 -5.480469 -0.160156 -4.695312 -0.160156 -3.675781 C -0.160156 -2.335938 1.25 -1.25 2.359375 -0.738281 C 3.492188 -0.207031 4.785156 0 6.058594 0 Z M 6.058594 0 "/></g></g></g><g fill="#000000" fill-opacity="1"><g transform="translate(161.872289, 242.866347)"><g><path d="M 13.480469 -17.34375 L 0 -17.34375 L 0 -15.398438 C 1.734375 -16.046875 3.050781 -16.902344 5.78125 -16.972656 L 5.78125 0 L 7.699219 0 L 7.699219 -16.972656 C 10.429688 -16.902344 11.746094 -16.046875 13.480469 -15.398438 Z M 13.480469 -17.34375 "/></g></g></g><g fill="#000000" fill-opacity="1"><g transform="translate(177.409631, 242.866347)"><g><path d="M 8.394531 -17.34375 C 3.769531 -17.34375 0 -13.457031 0 -8.671875 C 0 -3.882812 3.769531 0 8.394531 0 C 13.042969 0 16.785156 -3.882812 16.785156 -8.671875 C 16.785156 -13.457031 13.042969 -17.34375 8.394531 -17.34375 Z M 8.394531 -16.972656 C 11.976562 -16.972656 14.867188 -13.25 14.867188 -8.671875 C 14.867188 -4.070312 11.976562 -0.347656 8.394531 -0.347656 C 4.832031 -0.347656 1.917969 -4.070312 1.917969 -8.671875 C 1.917969 -13.25 4.832031 -16.972656 8.394531 -16.972656 Z M 8.394531 -16.972656 "/></g></g></g><g fill="#000000" fill-opacity="1"><g transform="translate(196.276422, 242.866347)"><g><path d="M 0 -17.34375 L 0 0 L 1.917969 0 L 1.917969 -16.972656 L 7.050781 -16.972656 C 9.15625 -16.972656 11.167969 -15.285156 11.167969 -12.855469 C 11.167969 -10.519531 9.964844 -8.902344 7.421875 -8.761719 C 5.894531 -8.671875 4.71875 -8.785156 3.445312 -7.675781 L 3.628906 -7.46875 C 4.925781 -8.53125 6.105469 -8.324219 7.050781 -6.867188 C 8.441406 -4.695312 9.25 -2.726562 10.429688 -0.578125 C 10.636719 -0.207031 10.890625 0 11.539062 0 L 13.320312 0 C 12.949219 -0.230469 12.417969 -1.015625 12.207031 -1.363281 C 11.121094 -3.121094 10.195312 -5.6875 8.785156 -7.585938 C 8.554688 -7.929688 8.253906 -8.207031 7.863281 -8.394531 C 10.613281 -8.394531 13.109375 -9.828125 13.109375 -12.855469 C 13.109375 -15.652344 10.84375 -17.34375 8.371094 -17.34375 Z M 0 -17.34375 "/></g></g></g><g fill="#000000" fill-opacity="1"><g transform="translate(211.21262, 242.866347)"><g><path d="M 8.671875 -17.34375 C 3.882812 -17.34375 0 -13.457031 0 -8.671875 C 0 -3.863281 3.90625 0 8.671875 0 C 11.097656 0 13.320312 -0.671875 14.890625 -1.917969 L 14.890625 -3.863281 C 12.742188 -0.925781 8.808594 0.808594 5.527344 -1.316406 C 3.398438 -2.707031 1.941406 -5.480469 1.917969 -8.671875 C 1.917969 -9.527344 2.40625 -9.964844 3.261719 -9.988281 C 4.902344 -9.988281 6.730469 -8.164062 8.671875 -7.839844 C 10.542969 -7.5625 12.070312 -8.554688 11.539062 -10.636719 C 11.328125 -9.664062 10.335938 -9.527344 9.503906 -9.617188 C 7.886719 -9.828125 6.359375 -11.03125 4.625 -11.03125 C 3.675781 -11.050781 2.660156 -10.773438 1.988281 -9.894531 C 2.472656 -13.898438 5.273438 -16.972656 8.671875 -16.972656 C 11.5625 -16.972656 13.875 -14.660156 12.878906 -11.863281 C 14.175781 -11.839844 14.890625 -12.625 14.890625 -13.664062 C 14.890625 -15.007812 13.457031 -16.070312 12.347656 -16.601562 C 11.214844 -17.109375 9.917969 -17.34375 8.671875 -17.34375 Z M 8.671875 -17.34375 "/></g></g></g><g clip-path="url(#fd08b30531)"><path fill="#000000" d="M 310.558594 214.734375 C 306.316406 208.398438 297.253906 204.085938 292.128906 199.613281 C 286.148438 198.261719 280.980469 195.265625 275.796875 192.890625 C 270.320312 190.382812 264.914062 188.335938 259.460938 186.171875 C 242.898438 179.589844 227.113281 172.140625 215.90625 160.546875 C 212.027344 156.535156 208.652344 151.601562 206.273438 147.105469 C 204.832031 144.378906 203.71875 139.507812 201.664062 138.285156 C 198.171875 136.207031 191.734375 138.074219 188.261719 136.605469 C 191.511719 124.988281 178.808594 120.8125 179.46875 111.402344 C 180.109375 102.3125 190.628906 102.515625 194.964844 107.625 C 196.375 109.285156 197.222656 113.773438 201.246094 112.242188 C 202.636719 109.863281 199.757812 107.238281 198.316406 105.523438 C 196.515625 103.382812 194.332031 101.230469 191.613281 100.484375 C 184.640625 98.5625 176.441406 102.40625 175.699219 110.5625 C 174.605469 122.574219 186.445312 123.207031 184.914062 136.605469 C 179.644531 137.980469 173.21875 136.308594 170.253906 138.285156 C 168.433594 139.5 165.738281 147.085938 163.972656 150.046875 C 161.621094 153.992188 158.464844 158.332031 156.015625 160.96875 C 143.042969 174.914062 122.957031 180.429688 104.082031 188.691406 C 97.320312 191.652344 90.457031 195.179688 83.558594 198.773438 C 74.257812 203.617188 63.976562 208.332031 60.945312 217.675781 C 60.128906 220.183594 58.851562 226.410156 62.199219 229.4375 C 67.023438 230.75 71.550781 223.902344 76.859375 222.714844 C 79.484375 222.125 84.289062 222.714844 88.585938 222.714844 L 103.242188 222.714844 C 149.476562 222.714844 213.574219 223.132812 269.511719 223.132812 C 279.085938 223.132812 289.953125 221.996094 297.15625 223.554688 C 302.410156 224.691406 305.917969 231.335938 312.234375 230.695312 C 316.0625 225.457031 313.21875 218.707031 310.554688 214.734375 Z M 197.894531 108.882812 C 195.527344 105.9375 193.542969 102.605469 188.679688 102.164062 C 193.242188 101.234375 196.371094 105.371094 197.894531 108.882812 Z M 184.910156 101.742188 C 185.785156 101.507812 188.113281 101.546875 188.261719 101.742188 C 188.675781 102.292969 186.128906 101.992188 185.75 102.164062 C 184.230469 102.847656 179.96875 104.761719 178.628906 106.785156 C 180.039062 103.957031 183.246094 102.191406 184.910156 101.742188 Z M 177.792969 107.625 C 179.480469 107.789062 177.480469 110.738281 177.375 111.824219 C 179.683594 120.832031 187.886719 125.746094 187.007812 136.605469 C 184.945312 134.761719 186.175781 133.390625 185.75 131.144531 C 184.148438 122.714844 174.425781 118.65625 177.792969 107.625 Z M 201.246094 139.546875 C 206.320312 149.445312 210.585938 157.976562 218.417969 165.167969 C 230.785156 176.523438 252.125 183.660156 269.515625 191.210938 C 277.53125 194.691406 283.246094 197.792969 291.292969 200.871094 C 298.417969 206.328125 307.363281 209.957031 310.140625 219.773438 C 291.941406 192.9375 242.992188 189.828125 218.417969 168.527344 C 210.390625 161.570312 205.570312 153.175781 200.410156 142.488281 C 193.4375 140.082031 182.320312 138.464844 174.863281 141.226562 C 170.269531 142.925781 170.265625 147.394531 167.324219 150.46875 C 165.628906 149.835938 168.554688 147.082031 169 145.847656 C 167.699219 134.359375 191.304688 137.589844 201.246094 139.546875 Z M 71.832031 206.332031 C 100.652344 186.433594 148.34375 181.859375 165.648438 149.628906 C 166.988281 151.394531 164.515625 153.265625 163.554688 155.085938 C 165.449219 154.75 165.691406 152.753906 166.484375 151.308594 C 158.757812 169.933594 140.117188 177.300781 119.996094 185.75 C 110.753906 189.632812 101.28125 193.796875 91.515625 198.351562 C 80.292969 203.585938 67.59375 208.894531 63.039062 220.191406 C 62.820312 214.117188 67.6875 209.195312 71.832031 206.332031 Z M 69.320312 224.8125 C 69.082031 225.5625 68.15625 224.875 68.902344 224.8125 C 92.699219 211.578125 115.910156 197.753906 140.101562 184.910156 C 116.898438 198.605469 93.230469 211.832031 69.320312 224.8125 Z M 185.75 160.96875 C 189.664062 161.925781 191.167969 162.445312 196.519531 165.988281 C 200.621094 168.695312 203.929688 170.707031 207.527344 172.730469 C 233.585938 187.363281 261.355469 202.214844 286.683594 218.09375 C 264.578125 217.347656 236.71875 218.035156 213.449219 218.148438 L 199.925781 218.039062 C 168.023438 217.199219 129.359375 217.503906 86.488281 217.253906 C 119 197.914062 153.070312 180.140625 185.746094 160.96875 Z M 140.519531 184.910156 C 143.984375 182.507812 147.660156 180.3125 151.828125 178.609375 C 150.410156 179.742188 144.101562 183.15625 140.519531 184.910156 Z M 152.664062 178.1875 C 155.902344 175.695312 159.679688 173.742188 163.554688 171.886719 C 160.304688 174.371094 156.464844 176.261719 152.664062 178.1875 Z M 82.722656 221.03125 C 84.679688 221.257812 90.96875 219.414062 93.191406 221.453125 C 90.515625 220.964844 84.269531 222.109375 82.722656 221.03125 Z M 93.609375 220.613281 C 99.171875 220.894531 101.644531 220.800781 106.175781 221.03125 C 103.078125 221.476562 96.019531 222.261719 93.609375 220.613281 Z M 107.011719 221.03125 L 109.527344 221.03125 C 140.917969 220.757812 174.472656 221.605469 206.691406 220.613281 C 174.429688 220.402344 129.667969 220.773438 82.722656 219.773438 C 85.824219 217.59375 94.675781 217.914062 101.570312 218.09375 C 121.550781 218.617188 150.183594 218.75 177.777344 218.464844 L 178.03125 218.582031 L 228.542969 219 L 228.46875 218.871094 C 242.765625 219.09375 256.785156 219.0625 269.09375 218.933594 C 276.253906 218.859375 283.910156 218 290.453125 220.191406 C 259.179688 221.066406 234.699219 220.070312 207.109375 220.613281 C 237.484375 221.714844 269.667969 220.519531 292.546875 221.453125 C 223.585938 222.101562 166.640625 222.222656 107.011719 221.03125 Z M 310.976562 228.59375 C 276.742188 209.300781 242.871094 189.648438 208.785156 170.207031 L 205.855469 170.207031 C 200.046875 165.953125 193.085938 162.851562 186.589844 159.289062 C 179.566406 162.746094 173.125 166.785156 166.484375 170.628906 C 156.230469 173.066406 146.445312 180.238281 137.585938 185.332031 C 112.617188 199.683594 87.101562 213.125 62.199219 226.914062 C 66.140625 208.527344 86.53125 200.640625 102.824219 193.730469 C 116.09375 188.105469 129.621094 183.207031 140.9375 177.351562 C 141.882812 178.328125 138.445312 178.46875 138.425781 179.871094 C 148.929688 174.027344 160.148438 165.035156 167.324219 152.566406 C 169.234375 149.246094 172.027344 142.363281 175.28125 142.066406 C 180.042969 141.632812 182.246094 147.316406 187.007812 147.945312 C 186.515625 146.199219 184.328125 146.15625 183.238281 145.007812 C 185.691406 144.796875 188.429688 147.914062 191.195312 148.789062 C 188.976562 145.832031 185.042969 144.59375 181.5625 142.90625 C 181.273438 144.035156 182.429688 143.71875 182.820312 144.167969 C 181.417969 144.855469 179.683594 142.28125 177.792969 142.066406 C 184.769531 139.964844 194.355469 140.4375 199.992188 143.328125 C 203.4375 150.550781 206.664062 157.070312 211.296875 162.648438 C 230.421875 185.664062 269.59375 188.386719 293.386719 206.753906 L 295.480469 206.753906 C 300.417969 211.457031 306.585938 214.9375 309.300781 221.875 C 307.496094 221.582031 306.730469 220.253906 305.113281 219.773438 C 307.011719 222.667969 312.472656 223.625 310.976562 228.59375 Z M 310.976562 228.59375 " fill-opacity="1" fill-rule="nonzero"/></g><g clip-path="url(#3ac834c4a6)"><path fill="#000000" d="M 310.558594 214.734375 C 306.316406 208.398438 297.253906 204.085938 292.128906 199.613281 C 286.148438 198.261719 280.980469 195.265625 275.796875 192.890625 C 270.320312 190.382812 264.914062 188.335938 259.460938 186.171875 C 242.898438 179.589844 227.113281 172.140625 215.90625 160.546875 C 212.027344 156.535156 208.652344 151.601562 206.273438 147.105469 C 204.832031 144.378906 203.71875 139.507812 201.664062 138.285156 C 198.171875 136.207031 191.734375 138.074219 188.261719 136.605469 C 191.511719 124.988281 178.808594 120.8125 179.46875 111.402344 C 180.109375 102.3125 190.628906 102.515625 194.964844 107.625 C 196.375 109.285156 197.222656 113.773438 201.246094 112.242188 C 202.636719 109.863281 199.757812 107.238281 198.316406 105.523438 C 196.515625 103.382812 194.332031 101.230469 191.613281 100.484375 C 184.640625 98.5625 176.441406 102.40625 175.699219 110.5625 C 174.605469 122.574219 186.445312 123.207031 184.914062 136.605469 C 179.644531 137.980469 173.21875 136.308594 170.253906 138.285156 C 168.433594 139.5 165.738281 147.085938 163.972656 150.046875 C 161.621094 153.992188 158.464844 158.332031 156.015625 160.96875 C 143.042969 174.914062 122.957031 180.429688 104.082031 188.691406 C 97.320312 191.652344 90.457031 195.179688 83.558594 198.773438 C 74.257812 203.617188 63.976562 208.332031 60.945312 217.675781 C 60.128906 220.183594 58.851562 226.410156 62.199219 229.4375 C 67.023438 230.75 71.550781 223.902344 76.859375 222.714844 C 79.480469 222.125 84.289062 222.714844 88.585938 222.714844 L 103.242188 222.714844 C 149.476562 222.714844 213.574219 223.132812 269.511719 223.132812 C 279.085938 223.132812 289.953125 221.996094 297.15625 223.554688 C 302.410156 224.691406 305.917969 231.335938 312.234375 230.695312 C 316.0625 225.457031 313.21875 218.707031 310.554688 214.734375 Z M 197.894531 108.882812 C 195.527344 105.9375 193.542969 102.605469 188.679688 102.164062 C 193.242188 101.234375 196.371094 105.371094 197.894531 108.882812 Z M 184.910156 101.742188 C 185.785156 101.507812 188.113281 101.546875 188.261719 101.742188 C 188.675781 102.292969 186.128906 101.992188 185.75 102.164062 C 184.230469 102.847656 179.96875 104.761719 178.628906 106.78125 C 180.039062 103.957031 183.246094 102.191406 184.910156 101.742188 Z M 177.792969 107.625 C 179.480469 107.789062 177.480469 110.738281 177.375 111.824219 C 179.683594 120.832031 187.886719 125.746094 187.007812 136.605469 C 184.945312 134.761719 186.175781 133.390625 185.75 131.144531 C 184.148438 122.714844 174.425781 118.65625 177.792969 107.625 Z M 201.246094 139.546875 C 206.320312 149.445312 210.585938 157.976562 218.417969 165.167969 C 230.785156 176.523438 252.125 183.660156 269.515625 191.210938 C 277.53125 194.691406 283.246094 197.792969 291.292969 200.871094 C 298.417969 206.328125 307.359375 209.957031 310.140625 219.773438 C 291.941406 192.9375 242.992188 189.828125 218.417969 168.527344 C 210.390625 161.570312 205.570312 153.175781 200.410156 142.488281 C 193.4375 140.082031 182.320312 138.464844 174.863281 141.226562 C 170.269531 142.925781 170.265625 147.394531 167.324219 150.46875 C 165.628906 149.835938 168.554688 147.082031 169 145.847656 C 167.699219 134.359375 191.304688 137.589844 201.246094 139.546875 Z M 71.832031 206.332031 C 100.652344 186.433594 148.34375 181.859375 165.648438 149.628906 C 166.988281 151.394531 164.515625 153.265625 163.554688 155.085938 C 165.449219 154.75 165.691406 152.753906 166.484375 151.308594 C 158.757812 169.933594 140.117188 177.300781 119.996094 185.75 C 110.753906 189.632812 101.28125 193.796875 91.515625 198.351562 C 80.292969 203.585938 67.59375 208.894531 63.039062 220.191406 C 62.820312 214.117188 67.6875 209.195312 71.832031 206.332031 Z M 69.320312 224.8125 C 69.082031 225.5625 68.15625 224.875 68.902344 224.8125 C 92.699219 211.578125 115.910156 197.753906 140.101562 184.910156 C 116.898438 198.605469 93.230469 211.832031 69.320312 224.8125 Z M 185.75 160.96875 C 189.664062 161.925781 191.167969 162.445312 196.519531 165.988281 C 200.621094 168.695312 203.929688 170.707031 207.527344 172.730469 C 233.585938 187.363281 261.355469 202.214844 286.683594 218.09375 C 264.578125 217.347656 236.71875 218.035156 213.449219 218.148438 L 199.925781 218.039062 C 168.023438 217.199219 129.359375 217.503906 86.488281 217.253906 C 119 197.914062 153.070312 180.140625 185.746094 160.96875 Z M 140.519531 184.910156 C 143.984375 182.507812 147.660156 180.3125 151.828125 178.609375 C 150.410156 179.742188 144.101562 183.15625 140.519531 184.910156 Z M 152.664062 178.1875 C 155.902344 175.695312 159.679688 173.742188 163.554688 171.886719 C 160.304688 174.371094 156.464844 176.261719 152.664062 178.1875 Z M 82.722656 221.03125 C 84.679688 221.257812 90.96875 219.414062 93.191406 221.453125 C 90.515625 220.964844 84.269531 222.109375 82.722656 221.03125 Z M 93.609375 220.613281 C 99.171875 220.894531 101.644531 220.800781 106.175781 221.03125 C 103.078125 221.476562 96.019531 222.261719 93.609375 220.613281 Z M 107.011719 221.03125 L 109.527344 221.03125 C 140.917969 220.757812 174.472656 221.605469 206.691406 220.613281 C 174.429688 220.402344 129.667969 220.773438 82.722656 219.773438 C 85.824219 217.59375 94.675781 217.914062 101.570312 218.09375 C 121.550781 218.617188 150.183594 218.75 177.777344 218.464844 L 178.03125 218.582031 L 228.542969 219 L 228.46875 218.871094 C 242.765625 219.09375 256.785156 219.0625 269.09375 218.933594 C 276.253906 218.859375 283.910156 218 290.453125 220.191406 C 259.179688 221.066406 234.699219 220.070312 207.109375 220.613281 C 237.484375 221.714844 269.667969 220.519531 292.546875 221.453125 C 223.585938 222.101562 166.640625 222.222656 107.011719 221.03125 Z M 310.976562 228.59375 C 276.742188 209.300781 242.871094 189.648438 208.785156 170.207031 L 205.855469 170.207031 C 200.046875 165.953125 193.085938 162.851562 186.589844 159.289062 C 179.566406 162.746094 173.125 166.785156 166.484375 170.628906 C 156.230469 173.066406 146.445312 180.238281 137.585938 185.332031 C 112.617188 199.683594 87.097656 213.125 62.199219 226.914062 C 66.140625 208.527344 86.53125 200.640625 102.824219 193.730469 C 116.09375 188.105469 129.621094 183.207031 140.9375 177.351562 C 141.882812 178.328125 138.445312 178.46875 138.425781 179.871094 C 148.929688 174.027344 160.148438 165.035156 167.324219 152.566406 C 169.234375 149.246094 172.027344 142.363281 175.28125 142.066406 C 180.042969 141.632812 182.246094 147.316406 187.007812 147.945312 C 186.515625 146.199219 184.328125 146.15625 183.238281 145.007812 C 185.691406 144.796875 188.429688 147.914062 191.195312 148.789062 C 188.976562 145.832031 185.042969 144.59375 181.5625 142.90625 C 181.273438 144.035156 182.429688 143.71875 182.820312 144.167969 C 181.417969 144.855469 179.683594 142.28125 177.792969 142.066406 C 184.769531 139.964844 194.355469 140.4375 199.992188 143.328125 C 203.4375 150.550781 206.664062 157.070312 211.296875 162.648438 C 230.421875 185.664062 269.59375 188.386719 293.386719 206.753906 L 295.480469 206.753906 C 300.417969 211.457031 306.585938 214.9375 309.300781 221.875 C 307.496094 221.582031 306.730469 220.253906 305.113281 219.773438 C 307.011719 222.667969 312.472656 223.625 310.976562 228.59375 Z M 310.976562 228.59375 " fill-opacity="1" fill-rule="nonzero"/></g><g clip-path="url(#021255b3e4)"><path fill="#000000" d="M 310.558594 214.734375 C 306.316406 208.398438 297.253906 204.085938 292.128906 199.613281 C 286.148438 198.261719 280.980469 195.265625 275.796875 192.890625 C 270.320312 190.382812 264.914062 188.335938 259.460938 186.171875 C 242.898438 179.589844 227.113281 172.140625 215.90625 160.546875 C 212.027344 156.535156 208.652344 151.601562 206.273438 147.105469 C 204.832031 144.378906 203.71875 139.507812 201.664062 138.285156 C 198.171875 136.207031 191.734375 138.074219 188.261719 136.605469 C 191.511719 124.988281 178.808594 120.8125 179.46875 111.402344 C 180.109375 102.3125 190.628906 102.515625 194.964844 107.625 C 196.375 109.285156 197.222656 113.773438 201.246094 112.242188 C 202.636719 109.863281 199.757812 107.238281 198.316406 105.523438 C 196.515625 103.382812 194.332031 101.230469 191.613281 100.484375 C 184.640625 98.5625 176.441406 102.40625 175.699219 110.5625 C 174.605469 122.574219 186.445312 123.207031 184.914062 136.605469 C 179.644531 137.980469 173.21875 136.308594 170.253906 138.285156 C 168.433594 139.5 165.738281 147.085938 163.972656 150.046875 C 161.621094 153.992188 158.464844 158.332031 156.015625 160.96875 C 143.042969 174.914062 122.957031 180.429688 104.082031 188.691406 C 97.320312 191.652344 90.457031 195.179688 83.558594 198.773438 C 74.257812 203.617188 63.976562 208.332031 60.945312 217.675781 C 60.128906 220.183594 58.851562 226.410156 62.199219 229.4375 C 67.023438 230.75 71.550781 223.902344 76.859375 222.714844 C 79.484375 222.125 84.289062 222.714844 88.585938 222.714844 L 103.242188 222.714844 C 149.476562 222.714844 213.574219 223.132812 269.511719 223.132812 C 279.085938 223.132812 289.953125 221.996094 297.15625 223.554688 C 302.410156 224.691406 305.917969 231.335938 312.234375 230.695312 C 316.0625 225.457031 313.21875 218.707031 310.554688 214.734375 Z M 197.894531 108.882812 C 195.527344 105.9375 193.542969 102.605469 188.679688 102.164062 C 193.242188 101.234375 196.371094 105.371094 197.894531 108.882812 Z M 184.910156 101.742188 C 185.785156 101.507812 188.113281 101.546875 188.261719 101.742188 C 188.675781 102.292969 186.128906 101.992188 185.75 102.164062 C 184.230469 102.847656 179.96875 104.761719 178.628906 106.78125 C 180.039062 103.957031 183.246094 102.191406 184.910156 101.742188 Z M 177.792969 107.625 C 179.480469 107.789062 177.480469 110.738281 177.375 111.824219 C 179.683594 120.832031 187.886719 125.746094 187.007812 136.605469 C 184.945312 134.761719 186.175781 133.390625 185.75 131.144531 C 184.148438 122.714844 174.425781 118.65625 177.792969 107.625 Z M 201.246094 139.546875 C 206.320312 149.445312 210.585938 157.976562 218.417969 165.167969 C 230.785156 176.523438 252.125 183.660156 269.515625 191.210938 C 277.53125 194.691406 283.246094 197.792969 291.292969 200.871094 C 298.417969 206.328125 307.363281 209.957031 310.140625 219.773438 C 291.941406 192.9375 242.992188 189.828125 218.417969 168.527344 C 210.390625 161.570312 205.570312 153.175781 200.410156 142.488281 C 193.4375 140.082031 182.320312 138.464844 174.863281 141.226562 C 170.269531 142.925781 170.265625 147.394531 167.324219 150.46875 C 165.628906 149.835938 168.554688 147.082031 169 145.847656 C 167.699219 134.359375 191.304688 137.589844 201.246094 139.546875 Z M 71.832031 206.332031 C 100.652344 186.433594 148.34375 181.859375 165.648438 149.628906 C 166.988281 151.394531 164.515625 153.265625 163.554688 155.085938 C 165.449219 154.75 165.691406 152.753906 166.484375 151.308594 C 158.757812 169.933594 140.117188 177.300781 119.996094 185.75 C 110.753906 189.632812 101.28125 193.796875 91.515625 198.351562 C 80.292969 203.585938 67.59375 208.894531 63.039062 220.191406 C 62.820312 214.117188 67.6875 209.195312 71.832031 206.332031 Z M 69.320312 224.8125 C 69.082031 225.5625 68.15625 224.875 68.902344 224.8125 C 92.699219 211.578125 115.910156 197.753906 140.101562 184.910156 C 116.898438 198.605469 93.230469 211.832031 69.320312 224.8125 Z M 185.75 160.96875 C 189.664062 161.925781 191.167969 162.445312 196.519531 165.988281 C 200.621094 168.695312 203.929688 170.707031 207.527344 172.730469 C 233.585938 187.363281 261.355469 202.214844 286.683594 218.09375 C 264.578125 217.347656 236.71875 218.035156 213.449219 218.148438 L 199.925781 218.039062 C 168.023438 217.199219 129.359375 217.503906 86.488281 217.253906 C 119 197.914062 153.070312 180.140625 185.746094 160.96875 Z M 140.519531 184.910156 C 143.984375 182.507812 147.660156 180.3125 151.828125 178.609375 C 150.410156 179.742188 144.101562 183.15625 140.519531 184.910156 Z M 152.664062 178.1875 C 155.902344 175.695312 159.679688 173.742188 163.554688 171.886719 C 160.304688 174.371094 156.464844 176.261719 152.664062 178.1875 Z M 82.722656 221.03125 C 84.679688 221.257812 90.96875 219.414062 93.191406 221.453125 C 90.515625 220.964844 84.269531 222.109375 82.722656 221.03125 Z M 93.609375 220.613281 C 99.171875 220.894531 101.644531 220.800781 106.175781 221.03125 C 103.078125 221.476562 96.019531 222.261719 93.609375 220.613281 Z M 107.011719 221.03125 L 109.527344 221.03125 C 140.917969 220.757812 174.472656 221.605469 206.691406 220.613281 C 174.429688 220.402344 129.667969 220.773438 82.722656 219.773438 C 85.824219 217.59375 94.675781 217.914062 101.570312 218.09375 C 121.550781 218.617188 150.183594 218.75 177.777344 218.464844 L 178.03125 218.582031 L 228.542969 219 L 228.46875 218.871094 C 242.765625 219.09375 256.785156 219.0625 269.09375 218.933594 C 276.253906 218.859375 283.910156 218 290.453125 220.191406 C 259.179688 221.066406 234.699219 220.070312 207.109375 220.613281 C 237.484375 221.714844 269.667969 220.519531 292.546875 221.453125 C 223.585938 222.101562 166.640625 222.222656 107.011719 221.03125 Z M 310.976562 228.59375 C 276.742188 209.300781 242.871094 189.648438 208.785156 170.207031 L 205.855469 170.207031 C 200.046875 165.953125 193.085938 162.851562 186.589844 159.289062 C 179.566406 162.746094 173.125 166.785156 166.484375 170.628906 C 156.230469 173.066406 146.445312 180.238281 137.585938 185.332031 C 112.617188 199.683594 87.101562 213.125 62.199219 226.914062 C 66.140625 208.527344 86.53125 200.640625 102.824219 193.730469 C 116.09375 188.105469 129.621094 183.207031 140.9375 177.351562 C 141.882812 178.328125 138.445312 178.46875 138.425781 179.871094 C 148.929688 174.027344 160.148438 165.035156 167.324219 152.566406 C 169.234375 149.246094 172.027344 142.363281 175.28125 142.066406 C 180.042969 141.632812 182.246094 147.316406 187.007812 147.945312 C 186.515625 146.199219 184.328125 146.15625 183.238281 145.007812 C 185.691406 144.796875 188.429688 147.914062 191.195312 148.789062 C 188.976562 145.832031 185.042969 144.59375 181.5625 142.90625 C 181.273438 144.035156 182.429688 143.71875 182.820312 144.167969 C 181.417969 144.855469 179.683594 142.28125 177.792969 142.066406 C 184.769531 139.964844 194.355469 140.4375 199.992188 143.328125 C 203.4375 150.550781 206.664062 157.070312 211.296875 162.648438 C 230.421875 185.664062 269.59375 188.386719 293.386719 206.753906 L 295.480469 206.753906 C 300.417969 211.457031 306.585938 214.9375 309.300781 221.875 C 307.496094 221.582031 306.730469 220.253906 305.113281 219.773438 C 307.011719 222.667969 312.472656 223.625 310.976562 228.59375 Z M 310.976562 228.59375 " fill-opacity="1" fill-rule="nonzero"/></g><path stroke-linecap="butt" transform="matrix(0.000000000000000044, -0.725441, 0.75, 0.000000000000000046, 263.83323, 222.536937)" fill="none" stroke-linejoin="miter" d="M 0.00245525 0.498401 L 6.205581 0.498401 " stroke="#000000" stroke-width="1" stroke-opacity="1" stroke-miterlimit="4"/><path stroke-linecap="butt" transform="matrix(0.000000000000000046, -0.756757, 0.75, 0.000000000000000046, 108.35424, 222.53477)" fill="none" stroke-linejoin="miter" d="M -0.000510155 0.501639 L 6.947314 0.501639 " stroke="#000000" stroke-width="1" stroke-opacity="1" stroke-miterlimit="4"/></svg>