<svg xmlns="http://www.w3.org/2000/svg" xmlns:xlink="http://www.w3.org/1999/xlink" width="500" zoomAndPan="magnify" viewBox="0 0 375 374.999991" height="500" preserveAspectRatio="xMidYMid meet" version="1.0"><defs><g/><clipPath id="0b0f5aa47a"><path d="M 156.195312 135.214844 L 221.773438 135.214844 L 221.773438 239.21875 L 156.195312 239.21875 Z M 156.195312 135.214844 " clip-rule="nonzero"/></clipPath><clipPath id="12e2e28fb3"><path d="M 180 92.21875 L 206 92.21875 L 206 179 L 180 179 Z M 180 92.21875 " clip-rule="nonzero"/></clipPath><clipPath id="11fc5d4f57"><path d="M 144.726562 106.21875 L 233.265625 106.21875 L 233.265625 230.402344 L 144.726562 230.402344 Z M 144.726562 106.21875 " clip-rule="nonzero"/></clipPath></defs><rect x="-37.5" width="450" fill="#ffffff" y="-37.499999" height="449.999989" fill-opacity="1"/><rect x="-37.5" width="450" fill="#ffffff" y="-37.499999" height="449.999989" fill-opacity="1"/><rect x="-37.5" width="450" fill="#ffffff" y="-37.499999" height="449.999989" fill-opacity="1"/><g clip-path="url(#0b0f5aa47a)"><path fill="#f6c254" d="M 190.234375 163.460938 C 191.230469 176.726562 193.46875 193.21875 198.789062 209.589844 C 200.464844 214.6875 203.40625 222.828125 201.703125 223.765625 C 200.171875 224.613281 194.730469 219.605469 190.996094 213.222656 C 192.46875 219.078125 191.820312 229.359375 196.554688 231.058594 C 201.847656 232.960938 211.699219 224.996094 216.023438 216.238281 C 218.464844 211.289062 218.84375 206.691406 219.609375 206.808594 C 220.492188 206.925781 219.902344 212.722656 220.550781 222.683594 C 221.140625 231.644531 222.019531 233.546875 221.667969 235.160156 C 221.582031 235.570312 221.40625 235.949219 221.316406 236.125 C 219.550781 239.726562 210.609375 237.792969 198.730469 238.730469 C 197.023438 238.878906 194.554688 239.113281 192.644531 237.621094 C 190.820312 236.183594 190.675781 234.105469 189.554688 234.074219 C 188.292969 234.046875 188.054688 236.652344 185.996094 238.175781 C 183.9375 239.699219 181.378906 239.199219 179.058594 238.90625 C 171.03125 237.96875 157.324219 238.730469 156.855469 237.96875 C 156.707031 237.765625 156.621094 237.53125 156.621094 237.53125 C 156.53125 237.355469 156.472656 237.148438 156.382812 236.855469 C 155.882812 234.867188 157.089844 232.699219 157.589844 225.289062 C 158.414062 213.601562 156.265625 207.304688 158.117188 206.601562 C 160.738281 205.636719 164.558594 218.699219 172.085938 219.109375 C 179.46875 219.519531 183.585938 208.066406 188.234375 209.210938 C 188.585938 209.296875 188.910156 209.441406 189.171875 209.675781 C 183.4375 196.761719 191.820312 191.136719 188.113281 168.175781 C 187.644531 165.246094 185.585938 153.382812 187.554688 138.886719 C 187.792969 137.097656 188.085938 135.488281 188.496094 135.460938 C 189.527344 135.429688 189.027344 145.566406 190.027344 160.5 M 190.027344 160.5 C 190.085938 161.46875 190.144531 162.464844 190.234375 163.460938 " fill-opacity="1" fill-rule="nonzero"/></g><path fill="#fcc1c5" d="M 199.730469 126.644531 C 199.464844 126.410156 198.671875 125.675781 198.230469 125.910156 C 197.703125 126.203125 198.496094 127.726562 198.320312 129.046875 C 197.820312 132.558594 190.847656 132.414062 189.46875 136.105469 C 188.496094 138.683594 190.410156 142.519531 192.847656 143.308594 C 196.46875 144.480469 202.054688 139.148438 202.464844 133.878906 C 202.699219 131.066406 201.40625 128.167969 199.730469 126.644531 Z M 180.527344 127.464844 C 180.5 126.117188 181.46875 124.710938 180.96875 124.359375 C 180.585938 124.097656 179.703125 124.710938 179.410156 124.917969 C 177.558594 126.234375 175.941406 128.957031 175.851562 131.828125 C 175.675781 137.097656 180.617188 143.015625 184.351562 142.285156 C 186.851562 141.785156 189.203125 138.15625 188.527344 135.519531 C 187.554688 131.652344 180.617188 131.007812 180.527344 127.464844 Z M 164.617188 134.699219 C 158.558594 132.941406 141.945312 154.761719 148.121094 164.425781 C 150.796875 168.613281 157.796875 170.519531 162.355469 168.410156 C 172.96875 163.460938 170.617188 136.457031 164.617188 134.699219 Z M 216.109375 196.554688 C 214.316406 197.316406 206.90625 188.328125 205.378906 177.167969 C 203.789062 165.570312 209.730469 154.847656 211.171875 155.140625 C 211.996094 155.316406 211.40625 158.859375 211.554688 165.597656 C 211.996094 184.957031 217.847656 195.824219 216.109375 196.554688 " fill-opacity="1" fill-rule="nonzero"/><g clip-path="url(#12e2e28fb3)"><path fill="#f9545a" d="M 192.144531 120.082031 C 192.4375 120.082031 192.671875 119.996094 192.90625 119.789062 C 193.144531 119.613281 192.964844 119.292969 192.761719 119.203125 C 192.410156 119.085938 192.230469 118.792969 191.820312 118.765625 C 191.46875 118.765625 191.171875 119.117188 191.289062 119.46875 C 191.378906 119.878906 191.761719 120.082031 192.144531 120.082031 Z M 195.289062 117.945312 C 194.230469 117.796875 193.230469 117.621094 192.261719 117.15625 C 191.378906 116.714844 190.734375 116.070312 189.96875 115.457031 C 189.4375 115.046875 188.496094 115.601562 188.96875 116.21875 C 190.320312 118.121094 193.085938 119.4375 195.347656 118.441406 C 195.585938 118.382812 195.527344 118.003906 195.289062 117.945312 Z M 193.613281 173.066406 C 192.820312 172.65625 190.996094 173.683594 190.613281 175.292969 C 190.144531 177.34375 192.203125 179.128906 193.113281 178.894531 C 194.4375 178.601562 194.90625 173.738281 193.613281 173.066406 Z M 190.4375 155.199219 C 191.730469 154.878906 192.230469 150.015625 190.9375 149.34375 C 190.144531 148.933594 188.320312 149.957031 187.9375 151.570312 C 187.46875 153.617188 189.527344 155.40625 190.4375 155.199219 Z M 191.203125 166.449219 C 192.496094 166.125 192.996094 161.261719 191.703125 160.589844 C 190.90625 160.179688 189.085938 161.203125 188.703125 162.816406 C 188.234375 164.894531 190.292969 166.679688 191.203125 166.449219 Z M 201.378906 107.664062 C 201.320312 105.644531 197.082031 104.734375 195.585938 105.144531 C 195.085938 105.292969 194.878906 106.113281 195.4375 106.375 C 197.144531 107.109375 199.671875 106.289062 201.054688 107.8125 C 201.113281 107.957031 201.378906 107.839844 201.378906 107.664062 Z M 191.113281 105.878906 C 191.527344 105.820312 191.878906 105.292969 191.496094 104.96875 C 190.585938 104.179688 189.085938 103.855469 187.910156 103.769531 C 186.820312 103.683594 185.527344 104.0625 184.792969 104.882812 C 184.675781 105.027344 184.761719 105.234375 184.9375 105.234375 C 186.117188 105.234375 186.9375 104.796875 188.175781 105.144531 C 189.113281 105.4375 190.054688 105.996094 191.113281 105.878906 Z M 204.9375 107.753906 C 204.4375 108.894531 203.996094 109.128906 202.789062 111.207031 C 201.789062 112.964844 201.496094 113.902344 201.289062 113.84375 C 201.140625 113.816406 201.113281 113.171875 201.761719 109.128906 C 202.4375 104.796875 202.582031 104.0625 202.082031 103.15625 C 201.730469 102.511719 200.878906 102.160156 199.289062 101.660156 C 195.554688 101.632812 192.261719 99.523438 188.351562 100.605469 C 187.996094 100.695312 187.761719 100.167969 188.113281 100.019531 C 188.734375 99.757812 189.378906 99.550781 190.054688 99.40625 C 189.113281 99.171875 188.910156 99.113281 188.46875 99.199219 C 186.144531 99.523438 184.234375 101.515625 183.320312 103.332031 C 181.734375 106.550781 182.910156 109.832031 182.320312 109.949219 C 181.878906 110.039062 181.058594 108.164062 180.644531 106.640625 C 180.234375 105.089844 180.261719 103.769531 180.320312 103.007812 C 180.382812 102.042969 180.761719 98.585938 183 96.035156 C 186.351562 92.230469 192.320312 92.316406 195.96875 93.371094 C 197.261719 93.753906 198.523438 94.308594 199.703125 95.042969 C 199.378906 94.632812 198.996094 94.222656 198.554688 93.871094 C 198.347656 93.695312 198.582031 93.371094 198.789062 93.460938 C 200.40625 93.898438 201.703125 95.507812 202.582031 97.355469 C 204.261719 99.082031 205.40625 101.164062 205.613281 103.300781 C 205.820312 105.878906 204.9375 107.753906 204.9375 107.753906 " fill-opacity="1" fill-rule="nonzero"/></g><g clip-path="url(#11fc5d4f57)"><path fill="#2741cc" d="M 202.082031 115.601562 C 201.90625 116.042969 202.613281 116.480469 202.90625 116.101562 C 203.613281 115.191406 205.847656 110.769531 203.582031 110.417969 C 203.4375 110.386719 203.347656 110.535156 203.4375 110.652344 C 204.613281 112.027344 202.582031 114.253906 202.082031 115.601562 Z M 197.585938 122.691406 C 197.4375 122.808594 197.523438 123.101562 197.730469 123.011719 C 200.464844 121.898438 201.582031 117.976562 202.144531 115.398438 C 202.230469 114.957031 201.640625 114.664062 201.40625 115.074219 C 200.730469 116.21875 200.554688 117.59375 200.230469 118.882812 C 199.789062 120.523438 199.023438 121.722656 197.585938 122.691406 Z M 158.941406 203.730469 C 160.382812 200.949219 162.089844 198.253906 163.972656 195.738281 C 159.5625 189.292969 159.53125 180.566406 162.382812 173.503906 C 159.472656 173.769531 156.382812 173.332031 153.503906 172.335938 C 152.207031 178.132812 150.648438 184.664062 152.382812 190.492188 C 153.828125 195.210938 156.679688 199.367188 158.941406 203.730469 Z M 214.90625 177.136719 C 214.640625 177.136719 214.347656 177.167969 214.082031 177.167969 C 213.816406 177.167969 213.699219 176.875 213.816406 176.699219 L 213.789062 176.667969 C 213.109375 175.4375 212.550781 174.148438 212.113281 172.832031 C 212.257812 174.96875 212.433594 177.109375 212.699219 179.21875 C 213.050781 182.117188 213.582031 184.988281 214.167969 187.855469 C 214.816406 184.285156 214.816406 180.800781 214.90625 177.136719 Z M 232.84375 169.082031 C 232.875 169.257812 232.8125 169.433594 232.636719 169.582031 C 230.402344 171.367188 227.753906 173.066406 224.933594 174.382812 C 226.816406 183.375 224.933594 193.773438 221.699219 202.207031 C 221.640625 202.328125 221.582031 202.414062 221.523438 202.5 C 221.523438 202.675781 221.433594 202.851562 221.316406 203 C 221.550781 203.175781 221.726562 203.46875 221.667969 203.820312 C 219.757812 215.476562 210.757812 226.988281 198.730469 229.445312 C 198.671875 230.003906 197.964844 230.445312 197.496094 229.917969 C 195.40625 227.601562 193.789062 224.671875 192.171875 221.976562 C 190.644531 219.402344 189.085938 216.765625 188.175781 213.894531 C 187.792969 212.695312 187.554688 211.464844 187.46875 210.234375 C 182.203125 214.597656 176.585938 218.84375 170.648438 222.214844 C 170.382812 222.359375 170.148438 222.328125 169.96875 222.214844 C 169.910156 222.214844 169.851562 222.183594 169.792969 222.125 C 167.296875 219.78125 165.058594 217.117188 162.882812 214.480469 C 160.914062 212.109375 158.882812 209.707031 157.503906 206.925781 C 157.265625 206.484375 157.53125 206.074219 157.882812 205.898438 C 157.882812 205.871094 157.882812 205.871094 157.914062 205.839844 C 158.148438 205.3125 158.414062 204.785156 158.679688 204.257812 C 155.855469 199.691406 152.472656 195.324219 150.972656 190.113281 C 149.269531 184.195312 150.855469 177.578125 152.148438 171.691406 C 149.652344 170.636719 147.328125 169.171875 145.535156 167.414062 C 145.0625 167.472656 144.53125 166.945312 144.796875 166.386719 C 148.296875 158.714844 151.53125 150.574219 156.296875 143.601562 C 158.414062 140.496094 161.179688 139.003906 164.472656 137.304688 C 168.148438 135.429688 171.644531 133.207031 175.234375 131.125 C 175.382812 131.035156 175.558594 131.242188 175.410156 131.359375 C 172.527344 133.789062 169.292969 135.753906 166 137.597656 C 164.355469 138.503906 162.589844 139.296875 161.03125 140.351562 C 159.179688 141.582031 157.882812 143.222656 156.707031 145.09375 C 152.53125 151.742188 149.589844 159.183594 146.328125 166.300781 C 149.003906 168.496094 151.738281 170.285156 155.121094 171.308594 C 158.414062 172.335938 161.738281 172.390625 165.148438 172.390625 C 165.472656 172.390625 165.53125 172.863281 165.238281 172.949219 C 164.765625 173.066406 164.292969 173.183594 163.824219 173.269531 C 163.882812 173.449219 163.882812 173.625 163.792969 173.828125 C 160.738281 180.886719 161.5625 188.238281 164.472656 195.121094 C 165.148438 194.242188 165.824219 193.394531 166.53125 192.574219 C 166.441406 192.457031 166.382812 192.308594 166.414062 192.132812 C 167.089844 182.730469 164.414062 173.417969 165.941406 164.074219 C 166 163.78125 166.5 163.839844 166.472656 164.132812 C 166.03125 172.976562 169.117188 181.824219 168.207031 190.667969 C 168.441406 190.40625 168.675781 190.140625 168.941406 189.878906 C 169.234375 189.585938 169.765625 189.964844 169.527344 190.316406 C 165.824219 195.617188 162.589844 201.09375 159.414062 206.71875 C 159.355469 206.808594 159.296875 206.867188 159.238281 206.925781 C 162.058594 212.109375 166.351562 216.445312 169.910156 221.15625 C 169.941406 221.128906 170 221.070312 170.027344 221.042969 C 175.761719 217.027344 181.734375 213.308594 187.527344 209.382812 C 187.378906 204.40625 189.203125 199.367188 190.320312 194.566406 C 190.378906 194.273438 190.792969 194.417969 190.734375 194.679688 C 189.671875 200.746094 187.734375 207.890625 189.910156 213.867188 C 191.910156 219.402344 195.96875 223.824219 198.699219 228.949219 C 203.9375 226.695312 208.789062 223.96875 212.667969 219.664062 C 216.757812 215.125 219.257812 209.382812 220.285156 203.410156 C 220.316406 203.320312 220.34375 203.234375 220.375 203.175781 C 220.34375 203.144531 220.316406 203.144531 220.285156 203.117188 C 218.199219 201.417969 216.699219 199.191406 215.964844 196.613281 C 215.875 196.261719 216.316406 196.117188 216.523438 196.378906 C 217.699219 198.078125 218.992188 199.632812 220.460938 201.066406 C 221.902344 196.789062 223.023438 192.484375 223.640625 188.035156 C 224.226562 183.609375 224.199219 179.21875 224.316406 174.765625 C 221.523438 176.023438 218.550781 176.875 215.640625 177.078125 C 216.40625 181.679688 216.757812 186.804688 214.992188 191.195312 C 215.230469 192.398438 215.464844 193.597656 215.671875 194.796875 C 215.847656 195.824219 214.316406 196.292969 214.050781 195.238281 C 211.613281 185.191406 209.554688 174.179688 211.523438 163.929688 C 211.582031 163.605469 212.082031 163.695312 212.082031 164.015625 C 212.054688 164.984375 212.054688 165.949219 212.054688 166.914062 C 212.199219 167.003906 212.316406 167.179688 212.347656 167.386719 C 212.640625 170.519531 213.375 173.449219 214.492188 176.375 L 214.492188 176.40625 C 217.550781 175.613281 220.582031 175.058594 223.523438 173.738281 C 226.519531 172.421875 229.285156 170.695312 231.84375 168.671875 C 227.578125 162.054688 225.667969 154.234375 221.550781 147.527344 C 219.316406 143.867188 216.316406 140.847656 212.757812 138.417969 C 209.464844 136.164062 205.878906 134.699219 202.378906 132.882812 C 202.082031 132.734375 202.289062 132.265625 202.613281 132.355469 C 210.082031 134.230469 217.433594 139.0625 221.84375 145.359375 C 226.726562 152.359375 228.578125 160.941406 233.226562 168.085938 C 233.34375 168.527344 233.167969 168.90625 232.84375 169.082031 Z M 195.996094 109.480469 C 196.230469 109.128906 196.410156 108.953125 196.761719 108.894531 C 196.730469 109.21875 196.878906 109.566406 197.144531 109.773438 C 197.671875 110.183594 198.4375 109.949219 198.820312 109.480469 C 198.820312 109.480469 198.820312 109.453125 198.847656 109.453125 C 199.261719 109.597656 199.644531 109.746094 200.054688 109.804688 C 200.464844 109.890625 200.730469 109.335938 200.347656 109.101562 C 199.4375 108.515625 198.085938 108.25 196.996094 108.132812 C 196.113281 108.046875 195.847656 108.542969 195.613281 109.335938 C 195.554688 109.566406 195.847656 109.6875 195.996094 109.480469 Z M 186.144531 107.136719 C 186.585938 107.226562 187.027344 107.285156 187.496094 107.34375 C 187.4375 107.78125 187.703125 108.25 188.085938 108.457031 C 188.703125 108.75 189.585938 108.339844 189.820312 107.695312 C 190.410156 107.929688 190.46875 108.28125 190.527344 108.894531 C 190.554688 109.101562 190.847656 109.160156 190.90625 108.953125 C 191.085938 108.105469 191.113281 107.546875 190.203125 107.253906 C 188.9375 106.816406 187.613281 106.433594 186.292969 106.289062 C 185.761719 106.171875 185.644531 107.019531 186.144531 107.136719 Z M 192.878906 115.164062 C 193.910156 114.664062 194.554688 113.757812 194.613281 112.613281 C 194.644531 111.824219 194.289062 111.179688 194.230469 110.417969 C 194.171875 109.421875 194.4375 108.425781 194.351562 107.429688 C 194.289062 106.933594 193.554688 106.757812 193.40625 107.3125 C 193.144531 108.308594 193.085938 109.539062 193.261719 110.566406 C 193.378906 111.152344 193.730469 111.558594 193.878906 112.144531 C 194.144531 113.230469 193.527344 114.253906 192.644531 114.839844 C 192.46875 114.957031 192.644531 115.28125 192.878906 115.164062 Z M 178.5 110.507812 C 178.558594 109.804688 179.320312 105.90625 180.703125 107.578125 C 180.851562 107.753906 180.617188 108.015625 180.441406 107.839844 C 179.5 106.992188 179.058594 109.921875 179.058594 110.242188 C 179.058594 110.828125 179.117188 111.414062 179.234375 111.972656 C 179.410156 112.820312 179.734375 114.605469 180.761719 114.871094 C 180.675781 113.054688 180.761719 111.207031 181.027344 109.511719 C 181.085938 109.011719 181.820312 109.1875 181.851562 109.628906 C 181.96875 111.53125 181.878906 113.464844 181.96875 115.398438 C 182.085938 118.089844 183.058594 119.261719 185.144531 120.816406 C 186.46875 121.78125 187.792969 122.835938 189.203125 123.625 C 191.410156 124.859375 193.40625 124.917969 195.789062 124.066406 C 195.90625 124.007812 195.996094 124.210938 195.878906 124.273438 C 193.910156 125.265625 192.203125 125.851562 190.054688 125.0625 C 187.851562 124.242188 185.878906 122.632812 184.027344 121.253906 C 183.617188 120.960938 183.261719 120.667969 182.910156 120.375 C 182.851562 122.894531 182.261719 125.414062 181.203125 127.667969 C 181.144531 127.785156 181 127.699219 181.027344 127.582031 C 181.617188 124.945312 181.585938 122.191406 182.058594 119.527344 C 181.558594 118.941406 181.203125 118.269531 181.027344 117.417969 C 180.941406 116.921875 180.882812 116.421875 180.824219 115.894531 C 178.527344 115.808594 178.382812 112.234375 178.5 110.507812 " fill-opacity="1" fill-rule="nonzero"/></g><path fill="#99e1d3" d="M 199.289062 112.027344 C 197.644531 112.027344 196.320312 113.347656 196.320312 114.988281 C 196.320312 116.628906 197.644531 117.976562 199.289062 117.976562 C 200.9375 117.976562 202.261719 116.65625 202.261719 115.015625 C 202.261719 113.375 200.9375 112.027344 199.289062 112.027344 Z M 188.203125 113.082031 C 188.203125 114.722656 186.878906 116.042969 185.234375 116.042969 C 183.585938 116.042969 182.261719 114.722656 182.261719 113.082031 C 182.261719 111.445312 183.585938 110.125 185.234375 110.125 C 186.878906 110.09375 188.203125 111.445312 188.203125 113.082031 " fill-opacity="1" fill-rule="nonzero"/><g fill="#2741cc" fill-opacity="1"><g transform="translate(107.563415, 251.808339)"><g><path d="M 5.136719 0.121094 C 7.476562 0.121094 9.480469 -1.53125 9.480469 -3.871094 C 9.480469 -9.046875 2.0625 -8.296875 2.0625 -10.902344 C 2.0625 -11.324219 2.28125 -11.757812 2.894531 -11.757812 L 4.570312 -11.757812 C 6.898438 -11.757812 8.082031 -11.421875 8.574219 -11.121094 L 8.574219 -12.058594 L 2.171875 -12.058594 C 1.6875 -12.058594 1.195312 -11.792969 1.195312 -11.179688 C 1.195312 -7.949219 8.574219 -9.46875 8.574219 -3.917969 C 8.574219 -1.761719 7.128906 -0.144531 5.136719 -0.144531 C 3.425781 -0.144531 1.386719 -1.460938 1.386719 -3.8125 C 1.386719 -5.015625 1.738281 -6.378906 3.125 -6.378906 C 3.027344 -6.5 2.761719 -6.574219 2.570312 -6.574219 C 1.421875 -6.574219 0.480469 -5.269531 0.480469 -3.894531 C 0.480469 -1.351562 2.726562 0.121094 5.136719 0.121094 Z M 5.136719 0.121094 "/></g></g></g><g fill="#2741cc" fill-opacity="1"><g transform="translate(117.704756, 251.808339)"><g><path d="M 1.542969 0 L 2.6875 0 L 2.6875 -0.0585938 C 1.722656 -0.964844 1.339844 -2.726562 1.339844 -4.789062 C 1.339844 -5.824219 1.554688 -6.824219 1.929688 -7.742188 C 2.265625 -4.910156 4.933594 0 7.960938 0 C 8.417969 0 8.394531 -0.566406 8.394531 -0.953125 L 8.394531 -9.046875 C 8.394531 -10.25 8.296875 -11.578125 8.78125 -12.058594 L 7.164062 -12.058594 C 3.292969 -12.058594 0.601562 -7.671875 0.601562 -3.761719 C 0.601562 -2.195312 1.167969 -0.589844 1.542969 0 Z M 7.152344 -11.757812 L 7.550781 -11.757812 L 7.550781 -1.183594 C 7.550781 -1.050781 7.574219 -0.832031 7.441406 -0.832031 C 5.476562 -0.832031 1.832031 -4.5 2.773438 -9.25 C 3.859375 -10.757812 5.449219 -11.757812 7.152344 -11.757812 Z M 7.152344 -11.757812 "/></g></g></g><g fill="#2741cc" fill-opacity="1"><g transform="translate(126.905519, 251.808339)"><g><path d="M 5.136719 0.121094 C 7.476562 0.121094 9.480469 -1.53125 9.480469 -3.871094 C 9.480469 -9.046875 2.0625 -8.296875 2.0625 -10.902344 C 2.0625 -11.324219 2.28125 -11.757812 2.894531 -11.757812 L 4.570312 -11.757812 C 6.898438 -11.757812 8.082031 -11.421875 8.574219 -11.121094 L 8.574219 -12.058594 L 2.171875 -12.058594 C 1.6875 -12.058594 1.195312 -11.792969 1.195312 -11.179688 C 1.195312 -7.949219 8.574219 -9.46875 8.574219 -3.917969 C 8.574219 -1.761719 7.128906 -0.144531 5.136719 -0.144531 C 3.425781 -0.144531 1.386719 -1.460938 1.386719 -3.8125 C 1.386719 -5.015625 1.738281 -6.378906 3.125 -6.378906 C 3.027344 -6.5 2.761719 -6.574219 2.570312 -6.574219 C 1.421875 -6.574219 0.480469 -5.269531 0.480469 -3.894531 C 0.480469 -1.351562 2.726562 0.121094 5.136719 0.121094 Z M 5.136719 0.121094 "/></g></g></g><g fill="#2741cc" fill-opacity="1"><g transform="translate(137.046861, 251.808339)"><g><path d="M 4.644531 -11.878906 L 4.644531 -3.015625 C 4.644531 -1.808594 4.738281 -0.480469 4.257812 0 L 5.875 0 C 5.390625 -0.480469 5.488281 -1.808594 5.488281 -3.015625 L 5.488281 -11.867188 C 7.429688 -11.867188 8.851562 -11.3125 9.890625 -10.070312 L 9.890625 -11.3125 C 8.671875 -11.925781 7.140625 -12.167969 5.054688 -12.179688 C 2.992188 -12.179688 1.460938 -11.9375 0.242188 -11.324219 L 0.242188 -10.082031 C 1.277344 -11.324219 2.703125 -11.878906 4.644531 -11.878906 Z M 4.644531 -11.878906 "/></g></g></g><g fill="#2741cc" fill-opacity="1"><g transform="translate(147.176152, 251.808339)"><g><path d="M 0.664062 -6.03125 C 0.664062 -2.640625 3.085938 0.121094 7.054688 0.121094 C 11.023438 0.121094 13.445312 -2.640625 13.445312 -6.03125 C 13.445312 -9.417969 11.023438 -12.179688 7.054688 -12.179688 C 3.085938 -12.179688 0.664062 -9.417969 0.664062 -6.03125 Z M 1.566406 -6.03125 C 1.566406 -9.273438 3.785156 -11.878906 7.054688 -11.878906 C 14.351562 -11.878906 14.339844 -0.179688 7.054688 -0.179688 C 3.785156 -0.179688 1.566406 -2.796875 1.566406 -6.03125 Z M 1.566406 -6.03125 "/></g></g></g><g fill="#2741cc" fill-opacity="1"><g transform="translate(161.284805, 251.808339)"><g/></g></g><g fill="#2741cc" fill-opacity="1"><g transform="translate(166.108272, 251.808339)"><g><path d="M 2.351562 0 C 1.871094 -0.480469 1.964844 -1.808594 1.964844 -3.015625 L 1.964844 -8.683594 C 3.0625 -5.800781 4.789062 -2.519531 7.285156 0 L 9.082031 0 L 9.082031 -0.0585938 C 5.402344 -2.292969 3.292969 -6.054688 1.738281 -9.9375 C 1.664062 -10.117188 1.484375 -10.648438 1.363281 -10.828125 C 1.339844 -10.867188 1.289062 -10.914062 1.230469 -10.914062 C 1.144531 -10.914062 1.121094 -10.855469 1.121094 -10.816406 L 1.121094 -3.015625 C 1.121094 -1.808594 1.21875 -0.480469 0.734375 0 Z M 6.707031 -12.058594 L 0 -12.058594 L 0 -11.121094 C 0.496094 -11.421875 1.675781 -11.757812 4.003906 -11.757812 L 6.546875 -11.757812 C 7.550781 -11.757812 8.082031 -11.167969 8.082031 -10.335938 C 8.082031 -8.394531 6.585938 -6.609375 4.195312 -5.8125 L 4.269531 -5.726562 C 6.269531 -6.03125 8.996094 -7.789062 8.996094 -10.382812 C 8.996094 -11.398438 8.285156 -12.058594 6.707031 -12.058594 Z M 6.707031 -12.058594 "/></g></g></g><g fill="#2741cc" fill-opacity="1"><g transform="translate(175.670806, 251.808339)"><g><path d="M 1.542969 0 L 2.6875 0 L 2.6875 -0.0585938 C 1.722656 -0.964844 1.339844 -2.726562 1.339844 -4.789062 C 1.339844 -5.824219 1.554688 -6.824219 1.929688 -7.742188 C 2.265625 -4.910156 4.933594 0 7.960938 0 C 8.417969 0 8.394531 -0.566406 8.394531 -0.953125 L 8.394531 -9.046875 C 8.394531 -10.25 8.296875 -11.578125 8.78125 -12.058594 L 7.164062 -12.058594 C 3.292969 -12.058594 0.601562 -7.671875 0.601562 -3.761719 C 0.601562 -2.195312 1.167969 -0.589844 1.542969 0 Z M 7.152344 -11.757812 L 7.550781 -11.757812 L 7.550781 -1.183594 C 7.550781 -1.050781 7.574219 -0.832031 7.441406 -0.832031 C 5.476562 -0.832031 1.832031 -4.5 2.773438 -9.25 C 3.859375 -10.757812 5.449219 -11.757812 7.152344 -11.757812 Z M 7.152344 -11.757812 "/></g></g></g><g fill="#2741cc" fill-opacity="1"><g transform="translate(184.871569, 251.808339)"><g><path d="M 0.480469 0 L 1.617188 0 C 1.132812 -0.480469 1.230469 -1.808594 1.230469 -3.015625 L 1.230469 -11.191406 L 6.234375 -1.664062 L 7.140625 -1.664062 L 5.886719 -4.050781 L 9.707031 -11.347656 L 9.707031 -3.015625 C 9.707031 -1.808594 9.804688 -0.480469 9.324219 0 L 10.9375 0 C 10.457031 -0.480469 10.550781 -1.808594 10.550781 -3.015625 L 10.550781 -9.046875 C 10.550781 -10.25 10.457031 -11.578125 10.9375 -12.058594 L 9.707031 -12.058594 L 5.691406 -4.414062 L 1.675781 -12.058594 L 0.480469 -12.058594 C 0.964844 -11.578125 0.867188 -10.25 0.867188 -9.046875 L 0.867188 -3.015625 C 0.867188 -1.808594 0.964844 -0.480469 0.480469 0 Z M 0.480469 0 "/></g></g></g><g fill="#2741cc" fill-opacity="1"><g transform="translate(196.291135, 251.808339)"><g><path d="M 2.351562 0 C 1.871094 -0.480469 1.964844 -1.808594 1.964844 -3.015625 L 1.964844 -8.683594 C 3.0625 -5.800781 4.789062 -2.519531 7.285156 0 L 9.082031 0 L 9.082031 -0.0585938 C 5.402344 -2.292969 3.292969 -6.054688 1.738281 -9.9375 C 1.664062 -10.117188 1.484375 -10.648438 1.363281 -10.828125 C 1.339844 -10.867188 1.289062 -10.914062 1.230469 -10.914062 C 1.144531 -10.914062 1.121094 -10.855469 1.121094 -10.816406 L 1.121094 -3.015625 C 1.121094 -1.808594 1.21875 -0.480469 0.734375 0 Z M 6.707031 -12.058594 L 0 -12.058594 L 0 -11.121094 C 0.496094 -11.421875 1.675781 -11.757812 4.003906 -11.757812 L 6.546875 -11.757812 C 7.550781 -11.757812 8.082031 -11.167969 8.082031 -10.335938 C 8.082031 -8.394531 6.585938 -6.609375 4.195312 -5.8125 L 4.269531 -5.726562 C 6.269531 -6.03125 8.996094 -7.789062 8.996094 -10.382812 C 8.996094 -11.398438 8.285156 -12.058594 6.707031 -12.058594 Z M 6.707031 -12.058594 "/></g></g></g><g fill="#2741cc" fill-opacity="1"><g transform="translate(205.853669, 251.808339)"><g><path d="M 0.664062 -6.03125 C 0.664062 -2.640625 3.085938 0.121094 7.054688 0.121094 C 11.023438 0.121094 13.445312 -2.640625 13.445312 -6.03125 C 13.445312 -9.417969 11.023438 -12.179688 7.054688 -12.179688 C 3.085938 -12.179688 0.664062 -9.417969 0.664062 -6.03125 Z M 1.566406 -6.03125 C 1.566406 -9.273438 3.785156 -11.878906 7.054688 -11.878906 C 14.351562 -11.878906 14.339844 -0.179688 7.054688 -0.179688 C 3.785156 -0.179688 1.566406 -2.796875 1.566406 -6.03125 Z M 1.566406 -6.03125 "/></g></g></g><g fill="#2741cc" fill-opacity="1"><g transform="translate(219.962322, 251.808339)"><g/></g></g><g fill="#2741cc" fill-opacity="1"><g transform="translate(224.785789, 251.808339)"><g><path d="M 5.136719 0.121094 C 7.476562 0.121094 9.480469 -1.53125 9.480469 -3.871094 C 9.480469 -9.046875 2.0625 -8.296875 2.0625 -10.902344 C 2.0625 -11.324219 2.28125 -11.757812 2.894531 -11.757812 L 4.570312 -11.757812 C 6.898438 -11.757812 8.082031 -11.421875 8.574219 -11.121094 L 8.574219 -12.058594 L 2.171875 -12.058594 C 1.6875 -12.058594 1.195312 -11.792969 1.195312 -11.179688 C 1.195312 -7.949219 8.574219 -9.46875 8.574219 -3.917969 C 8.574219 -1.761719 7.128906 -0.144531 5.136719 -0.144531 C 3.425781 -0.144531 1.386719 -1.460938 1.386719 -3.8125 C 1.386719 -5.015625 1.738281 -6.378906 3.125 -6.378906 C 3.027344 -6.5 2.761719 -6.574219 2.570312 -6.574219 C 1.421875 -6.574219 0.480469 -5.269531 0.480469 -3.894531 C 0.480469 -1.351562 2.726562 0.121094 5.136719 0.121094 Z M 5.136719 0.121094 "/></g></g></g><g fill="#2741cc" fill-opacity="1"><g transform="translate(234.927131, 251.808339)"><g><path d="M 4.644531 -11.878906 L 4.644531 -3.015625 C 4.644531 -1.808594 4.738281 -0.480469 4.257812 0 L 5.875 0 C 5.390625 -0.480469 5.488281 -1.808594 5.488281 -3.015625 L 5.488281 -11.867188 C 7.429688 -11.867188 8.851562 -11.3125 9.890625 -10.070312 L 9.890625 -11.3125 C 8.671875 -11.925781 7.140625 -12.167969 5.054688 -12.179688 C 2.992188 -12.179688 1.460938 -11.9375 0.242188 -11.324219 L 0.242188 -10.082031 C 1.277344 -11.324219 2.703125 -11.878906 4.644531 -11.878906 Z M 4.644531 -11.878906 "/></g></g></g><g fill="#2741cc" fill-opacity="1"><g transform="translate(245.056422, 251.808339)"><g><path d="M 0.664062 -6.03125 C 0.664062 -2.640625 3.085938 0.121094 7.054688 0.121094 C 11.023438 0.121094 13.445312 -2.640625 13.445312 -6.03125 C 13.445312 -9.417969 11.023438 -12.179688 7.054688 -12.179688 C 3.085938 -12.179688 0.664062 -9.417969 0.664062 -6.03125 Z M 1.566406 -6.03125 C 1.566406 -9.273438 3.785156 -11.878906 7.054688 -11.878906 C 14.351562 -11.878906 14.339844 -0.179688 7.054688 -0.179688 C 3.785156 -0.179688 1.566406 -2.796875 1.566406 -6.03125 Z M 1.566406 -6.03125 "/></g></g></g><g fill="#2741cc" fill-opacity="1"><g transform="translate(259.165075, 251.808339)"><g><path d="M 2.351562 0 C 1.871094 -0.480469 1.964844 -1.808594 1.964844 -3.015625 L 1.964844 -8.683594 C 3.0625 -5.800781 4.789062 -2.519531 7.285156 0 L 9.082031 0 L 9.082031 -0.0585938 C 5.402344 -2.292969 3.292969 -6.054688 1.738281 -9.9375 C 1.664062 -10.117188 1.484375 -10.648438 1.363281 -10.828125 C 1.339844 -10.867188 1.289062 -10.914062 1.230469 -10.914062 C 1.144531 -10.914062 1.121094 -10.855469 1.121094 -10.816406 L 1.121094 -3.015625 C 1.121094 -1.808594 1.21875 -0.480469 0.734375 0 Z M 6.707031 -12.058594 L 0 -12.058594 L 0 -11.121094 C 0.496094 -11.421875 1.675781 -11.757812 4.003906 -11.757812 L 6.546875 -11.757812 C 7.550781 -11.757812 8.082031 -11.167969 8.082031 -10.335938 C 8.082031 -8.394531 6.585938 -6.609375 4.195312 -5.8125 L 4.269531 -5.726562 C 6.269531 -6.03125 8.996094 -7.789062 8.996094 -10.382812 C 8.996094 -11.398438 8.285156 -12.058594 6.707031 -12.058594 Z M 6.707031 -12.058594 "/></g></g></g><g fill="#2741cc" fill-opacity="1"><g transform="translate(268.727609, 251.808339)"><g><path d="M 0.664062 -6.03125 C 0.664062 -3.894531 1.363281 -0.988281 2.328125 0 L 8.960938 0 L 8.960938 -0.941406 C 8.464844 -0.640625 7.285156 -0.300781 4.957031 -0.300781 L 2.570312 -0.300781 C 1.664062 -2.097656 1.554688 -4.894531 1.640625 -6.933594 L 3.160156 -6.933594 C 4.691406 -6.933594 6.839844 -6.597656 7.332031 -6.296875 L 7.332031 -7.234375 L 1.652344 -7.234375 C 1.699219 -8.683594 1.917969 -10.445312 2.570312 -11.757812 L 4.957031 -11.757812 C 7.285156 -11.757812 8.464844 -11.421875 8.960938 -11.121094 L 8.960938 -12.058594 L 2.328125 -12.058594 C 1.363281 -11.070312 0.664062 -8.164062 0.664062 -6.03125 Z M 0.664062 -6.03125 "/></g></g></g><g fill="#f9545a" fill-opacity="1"><g transform="translate(131.393118, 266.220275)"><g><path d="M 2.140625 -6.703125 L 0.046875 -6.703125 L 0.046875 -7.71875 L 5.375 -7.71875 L 5.375 -6.703125 L 3.28125 -6.703125 L 3.28125 0 L 2.140625 0 Z M 2.140625 -6.703125 "/></g></g></g><g fill="#f9545a" fill-opacity="1"><g transform="translate(138.797899, 266.220275)"><g><path d="M 6.984375 0 L 5.546875 0 L 3.125 -3.328125 L 1.78125 -3.328125 L 1.78125 0 L 0.625 0 L 0.625 -7.71875 L 3.765625 -7.71875 C 4.066406 -7.71875 4.351562 -7.660156 4.625 -7.546875 C 4.90625 -7.429688 5.144531 -7.273438 5.34375 -7.078125 C 5.539062 -6.878906 5.695312 -6.644531 5.8125 -6.375 C 5.925781 -6.113281 5.984375 -5.832031 5.984375 -5.53125 C 5.984375 -5.28125 5.941406 -5.039062 5.859375 -4.8125 C 5.785156 -4.582031 5.675781 -4.378906 5.53125 -4.203125 C 5.394531 -4.023438 5.226562 -3.867188 5.03125 -3.734375 C 4.832031 -3.597656 4.617188 -3.5 4.390625 -3.4375 Z M 3.765625 -4.40625 C 3.921875 -4.40625 4.066406 -4.429688 4.203125 -4.484375 C 4.335938 -4.546875 4.453125 -4.628906 4.546875 -4.734375 C 4.648438 -4.835938 4.726562 -4.957031 4.78125 -5.09375 C 4.84375 -5.238281 4.875 -5.390625 4.875 -5.546875 C 4.875 -5.710938 4.84375 -5.863281 4.78125 -6 C 4.726562 -6.132812 4.648438 -6.253906 4.546875 -6.359375 C 4.453125 -6.472656 4.335938 -6.554688 4.203125 -6.609375 C 4.066406 -6.671875 3.921875 -6.703125 3.765625 -6.703125 L 1.78125 -6.703125 L 1.78125 -4.390625 Z M 3.765625 -4.40625 "/></g></g></g><g fill="#f9545a" fill-opacity="1"><g transform="translate(147.661505, 266.220275)"><g><path d="M 5.328125 -7.71875 L 5.328125 -6.703125 L 1.75 -6.703125 L 1.75 -4.59375 L 4.9375 -4.59375 L 4.9375 -3.546875 L 1.75 -3.546875 L 1.75 -1.0625 L 5.328125 -1.0625 L 5.328125 0 L 0.609375 0 L 0.609375 -7.71875 Z M 5.328125 -7.71875 "/></g></g></g><g fill="#f9545a" fill-opacity="1"><g transform="translate(155.360229, 266.220275)"><g><path d="M 7.265625 -7.71875 L 7.265625 0 L 6.109375 0 L 1.796875 -5.921875 L 1.796875 0 L 0.609375 0 L 0.609375 -7.71875 L 1.8125 -7.71875 L 6.125 -1.765625 L 6.125 -7.71875 Z M 7.265625 -7.71875 "/></g></g></g><g fill="#f9545a" fill-opacity="1"><g transform="translate(164.975013, 266.220275)"><g><path d="M 0.65625 0 L 0.65625 -7.71875 L 3.390625 -7.71875 C 3.953125 -7.71875 4.445312 -7.613281 4.875 -7.40625 C 5.300781 -7.207031 5.65625 -6.929688 5.9375 -6.578125 C 6.226562 -6.234375 6.445312 -5.828125 6.59375 -5.359375 C 6.75 -4.890625 6.828125 -4.390625 6.828125 -3.859375 C 6.828125 -3.316406 6.75 -2.8125 6.59375 -2.34375 C 6.4375 -1.875 6.21875 -1.460938 5.9375 -1.109375 C 5.664062 -0.765625 5.34375 -0.492188 4.96875 -0.296875 C 4.59375 -0.0976562 4.1875 0 3.75 0 Z M 3.359375 -1.0625 C 3.765625 -1.0625 4.113281 -1.132812 4.40625 -1.28125 C 4.695312 -1.4375 4.9375 -1.640625 5.125 -1.890625 C 5.3125 -2.148438 5.445312 -2.445312 5.53125 -2.78125 C 5.625 -3.125 5.671875 -3.484375 5.671875 -3.859375 C 5.671875 -4.222656 5.625 -4.578125 5.53125 -4.921875 C 5.445312 -5.273438 5.3125 -5.582031 5.125 -5.84375 C 4.945312 -6.101562 4.707031 -6.3125 4.40625 -6.46875 C 4.113281 -6.625 3.765625 -6.703125 3.359375 -6.703125 L 1.796875 -6.703125 L 1.796875 -1.0625 Z M 3.359375 -1.0625 "/></g></g></g><g fill="#f9545a" fill-opacity="1"><g transform="translate(174.078121, 266.220275)"><g><path d="M 2.828125 -3.609375 L 0.09375 -7.71875 L 1.453125 -7.71875 L 3.390625 -4.828125 L 5.3125 -7.71875 L 6.6875 -7.71875 L 3.96875 -3.609375 L 3.96875 0 L 2.828125 0 Z M 2.828125 -3.609375 "/></g></g></g><g fill="#f9545a" fill-opacity="1"><g transform="translate(182.626007, 266.220275)"><g/></g></g><g fill="#f9545a" fill-opacity="1"><g transform="translate(187.189344, 266.220275)"><g><path d="M 4.25 -0.953125 C 4.664062 -0.953125 5.050781 -1.050781 5.40625 -1.25 C 5.769531 -1.457031 6.078125 -1.726562 6.328125 -2.0625 L 7.125 -1.296875 C 6.769531 -0.878906 6.34375 -0.539062 5.84375 -0.28125 C 5.351562 -0.0195312 4.820312 0.109375 4.25 0.109375 C 3.726562 0.109375 3.234375 0.00390625 2.765625 -0.203125 C 2.296875 -0.410156 1.890625 -0.691406 1.546875 -1.046875 C 1.210938 -1.410156 0.945312 -1.832031 0.75 -2.3125 C 0.550781 -2.800781 0.453125 -3.316406 0.453125 -3.859375 C 0.453125 -4.398438 0.550781 -4.910156 0.75 -5.390625 C 0.945312 -5.867188 1.210938 -6.285156 1.546875 -6.640625 C 1.890625 -7.003906 2.296875 -7.289062 2.765625 -7.5 C 3.234375 -7.707031 3.726562 -7.8125 4.25 -7.8125 C 4.738281 -7.8125 5.195312 -7.71875 5.625 -7.53125 C 6.050781 -7.34375 6.4375 -7.09375 6.78125 -6.78125 L 6.109375 -5.90625 C 5.867188 -6.164062 5.585938 -6.375 5.265625 -6.53125 C 4.953125 -6.695312 4.613281 -6.78125 4.25 -6.78125 C 3.875 -6.78125 3.523438 -6.703125 3.203125 -6.546875 C 2.878906 -6.390625 2.597656 -6.175781 2.359375 -5.90625 C 2.117188 -5.644531 1.925781 -5.335938 1.78125 -4.984375 C 1.644531 -4.628906 1.578125 -4.253906 1.578125 -3.859375 C 1.578125 -3.453125 1.644531 -3.070312 1.78125 -2.71875 C 1.925781 -2.375 2.117188 -2.066406 2.359375 -1.796875 C 2.597656 -1.535156 2.878906 -1.328125 3.203125 -1.171875 C 3.523438 -1.023438 3.875 -0.953125 4.25 -0.953125 Z M 4.25 -0.953125 "/></g></g></g><g fill="#f9545a" fill-opacity="1"><g transform="translate(196.379556, 266.220275)"><g><path d="M 0.640625 0 L 0.640625 -7.71875 L 1.78125 -7.71875 L 1.78125 -1.0625 L 5.359375 -1.0625 L 5.359375 0 Z M 0.640625 0 "/></g></g></g><g fill="#f9545a" fill-opacity="1"><g transform="translate(203.686356, 266.220275)"><g><path d="M 4.1875 -7.828125 C 4.71875 -7.828125 5.210938 -7.722656 5.671875 -7.515625 C 6.140625 -7.304688 6.546875 -7.019531 6.890625 -6.65625 C 7.234375 -6.300781 7.503906 -5.878906 7.703125 -5.390625 C 7.910156 -4.910156 8.015625 -4.398438 8.015625 -3.859375 C 8.015625 -3.316406 7.910156 -2.804688 7.703125 -2.328125 C 7.503906 -1.847656 7.226562 -1.425781 6.875 -1.0625 C 6.53125 -0.707031 6.125 -0.425781 5.65625 -0.21875 C 5.195312 -0.0078125 4.707031 0.09375 4.1875 0.09375 C 3.65625 0.09375 3.15625 -0.0078125 2.6875 -0.21875 C 2.226562 -0.425781 1.828125 -0.707031 1.484375 -1.0625 C 1.140625 -1.425781 0.867188 -1.847656 0.671875 -2.328125 C 0.472656 -2.804688 0.375 -3.316406 0.375 -3.859375 C 0.375 -4.398438 0.472656 -4.910156 0.671875 -5.390625 C 0.867188 -5.878906 1.140625 -6.300781 1.484375 -6.65625 C 1.835938 -7.019531 2.242188 -7.304688 2.703125 -7.515625 C 3.171875 -7.722656 3.664062 -7.828125 4.1875 -7.828125 Z M 4.1875 -0.984375 C 4.5625 -0.984375 4.910156 -1.054688 5.234375 -1.203125 C 5.554688 -1.347656 5.835938 -1.550781 6.078125 -1.8125 C 6.316406 -2.070312 6.503906 -2.378906 6.640625 -2.734375 C 6.773438 -3.085938 6.84375 -3.460938 6.84375 -3.859375 C 6.84375 -4.265625 6.773438 -4.640625 6.640625 -4.984375 C 6.503906 -5.335938 6.316406 -5.644531 6.078125 -5.90625 C 5.835938 -6.164062 5.554688 -6.367188 5.234375 -6.515625 C 4.910156 -6.660156 4.5625 -6.734375 4.1875 -6.734375 C 3.820312 -6.734375 3.476562 -6.660156 3.15625 -6.515625 C 2.832031 -6.367188 2.550781 -6.164062 2.3125 -5.90625 C 2.070312 -5.644531 1.878906 -5.335938 1.734375 -4.984375 C 1.597656 -4.640625 1.53125 -4.265625 1.53125 -3.859375 C 1.53125 -3.460938 1.597656 -3.085938 1.734375 -2.734375 C 1.878906 -2.378906 2.070312 -2.070312 2.3125 -1.8125 C 2.550781 -1.550781 2.832031 -1.347656 3.15625 -1.203125 C 3.476562 -1.054688 3.820312 -0.984375 4.1875 -0.984375 Z M 4.1875 -0.984375 "/></g></g></g><g fill="#f9545a" fill-opacity="1"><g transform="translate(213.758392, 266.220275)"><g><path d="M 2.140625 -6.703125 L 0.046875 -6.703125 L 0.046875 -7.71875 L 5.375 -7.71875 L 5.375 -6.703125 L 3.28125 -6.703125 L 3.28125 0 L 2.140625 0 Z M 2.140625 -6.703125 "/></g></g></g><g fill="#f9545a" fill-opacity="1"><g transform="translate(221.163177, 266.220275)"><g><path d="M 6.078125 -7.71875 L 7.203125 -7.71875 L 7.203125 0 L 6.078125 0 L 6.078125 -3.546875 L 1.75 -3.546875 L 1.75 0 L 0.609375 0 L 0.609375 -7.71875 L 1.75 -7.71875 L 1.75 -4.59375 L 6.078125 -4.59375 Z M 6.078125 -7.71875 "/></g></g></g><g fill="#f9545a" fill-opacity="1"><g transform="translate(230.756198, 266.220275)"><g><path d="M 2.703125 -6.78125 L 2.703125 -0.9375 L 3.265625 -0.9375 L 3.265625 0 L 0.984375 0 L 0.984375 -0.9375 L 1.5625 -0.9375 L 1.5625 -6.78125 L 0.984375 -6.78125 L 0.984375 -7.71875 L 3.265625 -7.71875 L 3.265625 -6.78125 Z M 2.703125 -6.78125 "/></g></g></g><g fill="#f9545a" fill-opacity="1"><g transform="translate(236.756598, 266.220275)"><g><path d="M 7.265625 -7.71875 L 7.265625 0 L 6.109375 0 L 1.796875 -5.921875 L 1.796875 0 L 0.609375 0 L 0.609375 -7.71875 L 1.8125 -7.71875 L 6.125 -1.765625 L 6.125 -7.71875 Z M 7.265625 -7.71875 "/></g></g></g><g fill="#f9545a" fill-opacity="1"><g transform="translate(246.371385, 266.220275)"><g><path d="M 4.921875 -4.125 L 7.03125 -4.125 L 7.03125 -1.296875 C 6.675781 -0.878906 6.25 -0.539062 5.75 -0.28125 C 5.257812 -0.0195312 4.726562 0.109375 4.15625 0.109375 C 3.625 0.109375 3.125 0.00390625 2.65625 -0.203125 C 2.195312 -0.410156 1.796875 -0.691406 1.453125 -1.046875 C 1.117188 -1.410156 0.847656 -1.832031 0.640625 -2.3125 C 0.441406 -2.789062 0.34375 -3.304688 0.34375 -3.859375 C 0.34375 -4.390625 0.441406 -4.894531 0.640625 -5.375 C 0.847656 -5.863281 1.117188 -6.285156 1.453125 -6.640625 C 1.796875 -7.003906 2.195312 -7.289062 2.65625 -7.5 C 3.125 -7.707031 3.625 -7.8125 4.15625 -7.8125 C 4.632812 -7.8125 5.085938 -7.71875 5.515625 -7.53125 C 5.941406 -7.34375 6.328125 -7.097656 6.671875 -6.796875 L 5.984375 -5.9375 C 5.742188 -6.1875 5.46875 -6.390625 5.15625 -6.546875 C 4.84375 -6.703125 4.507812 -6.78125 4.15625 -6.78125 C 3.78125 -6.78125 3.429688 -6.703125 3.109375 -6.546875 C 2.785156 -6.390625 2.503906 -6.175781 2.265625 -5.90625 C 2.023438 -5.644531 1.832031 -5.335938 1.6875 -4.984375 C 1.550781 -4.628906 1.484375 -4.253906 1.484375 -3.859375 C 1.484375 -3.453125 1.550781 -3.070312 1.6875 -2.71875 C 1.832031 -2.375 2.023438 -2.066406 2.265625 -1.796875 C 2.503906 -1.535156 2.785156 -1.328125 3.109375 -1.171875 C 3.429688 -1.023438 3.78125 -0.953125 4.15625 -0.953125 C 4.488281 -0.953125 4.800781 -1.015625 5.09375 -1.140625 C 5.394531 -1.273438 5.664062 -1.457031 5.90625 -1.6875 L 5.90625 -3.078125 L 4.921875 -3.078125 Z M 4.921875 -4.125 "/></g></g></g></svg>